<?xml version="1.0" encoding="UTF-8"?>
<svg width="15px" height="15px" viewBox="0 0 15 15" version="1.1" xmlns="http://www.w3.org/2000/svg" xmlns:xlink="http://www.w3.org/1999/xlink">
    <title>1605BF4D-495A-4479-AE16-2DF18321B1B9</title>
    <g id="Page-1" stroke="none" stroke-width="1" fill="none" fill-rule="evenodd">
        <g id="list" transform="translate(-1473.000000, -1322.000000)" fill="#E67E22" fill-rule="nonzero">
            <g id="noun-star-1354329" transform="translate(1473.618683, 1322.600605)">
                <path d="M0.373030572,6.12049956 L3.13491025,8.12709333 C3.45052816,8.35628653 3.58273441,8.76250917 3.46238008,9.13346152 L2.40682004,12.3808876 C2.13751384,13.2104455 3.08694184,13.9004057 3.7930359,13.3878675 L6.55491558,11.3809934 C6.87053348,11.151502 7.29745748,11.151502 7.61307539,11.3809934 L10.3749551,13.3878675 C11.0807433,13.9004057 12.0304771,13.2104481 11.7611709,12.3808876 L10.7060187,9.13346152 C10.5850501,8.76248368 10.7172694,8.35628143 11.0331827,8.12709333 L13.7948075,6.12049956 C14.5003153,5.60755356 14.1382073,4.49125562 13.2657276,4.49125562 L9.85186484,4.49135518 C9.46197491,4.49135518 9.11549104,4.24005879 8.9953406,3.86909114 L7.9405707,0.622684584 C7.67095864,-0.207561528 6.49741465,-0.207561528 6.22749673,0.622684584 L5.17203865,3.86934602 C5.05186783,4.24032386 4.70667875,4.49161006 4.31610064,4.49161006 L0.901983036,4.49151047 C0.0296052598,4.49151047 -0.332604708,5.60780841 0.372903132,6.12055051 L0.373030572,6.12049956 Z" id="Path"></path>
            </g>
        </g>
    </g>
</svg>